<?xml version="1.0" encoding="UTF-8"?>
<svg xmlns="http://www.w3.org/2000/svg" xmlns:xlink="http://www.w3.org/1999/xlink" width="32px" height="32px" viewBox="0 0 32 32" version="1.1">
<g id="surface1">
<path style=" stroke:none;fill-rule:evenodd;fill:rgb(98.431373%,98.431373%,98.431373%);fill-opacity:1;" d="M 14.609375 0.046875 C 13.941406 0.109375 13.480469 0.179688 12.808594 0.3125 C 10.195312 0.839844 7.78125 2.007812 5.6875 3.753906 C 5.230469 4.132812 4.25 5.101562 3.867188 5.546875 C 1.734375 8.050781 0.445312 11.039062 0.0742188 14.328125 C 0.0078125 14.933594 -0.0195312 16.492188 0.03125 17.132812 C 0.316406 20.949219 1.886719 24.449219 4.53125 27.167969 C 7.125 29.832031 10.421875 31.449219 14.191406 31.910156 C 14.695312 31.972656 14.914062 31.980469 15.984375 31.984375 C 17.261719 31.984375 17.589844 31.960938 18.53125 31.808594 C 21.382812 31.351562 24.054688 30.128906 26.3125 28.246094 C 26.769531 27.867188 27.75 26.898438 28.132812 26.453125 C 29.773438 24.527344 30.917969 22.3125 31.527344 19.886719 C 31.753906 18.976562 31.96875 17.609375 31.96875 17.0625 C 31.96875 16.976562 31.984375 16.90625 32 16.90625 C 32.019531 16.90625 32.03125 16.578125 32.03125 15.984375 C 32.03125 15.390625 32.019531 15.0625 32 15.0625 C 31.984375 15.0625 31.96875 15 31.96875 14.921875 C 31.96875 14.390625 31.75 13.011719 31.527344 12.113281 C 30.917969 9.6875 29.773438 7.472656 28.132812 5.546875 C 27.75 5.101562 26.769531 4.132812 26.3125 3.753906 C 23.859375 1.707031 21.015625 0.480469 17.820312 0.0898438 C 17.136719 0.0078125 15.28125 -0.0195312 14.609375 0.046875 M 14.75 0.566406 C 11.777344 0.820312 9.003906 1.882812 6.648438 3.664062 C 4.730469 5.113281 3.109375 7.089844 2.0625 9.265625 C 1.417969 10.605469 0.976562 11.988281 0.738281 13.421875 C 0.570312 14.429688 0.546875 14.714844 0.546875 16 C 0.546875 17.285156 0.570312 17.570312 0.738281 18.578125 C 1.382812 22.4375 3.527344 25.980469 6.648438 28.335938 C 9.023438 30.132812 11.785156 31.183594 14.796875 31.4375 C 15.28125 31.476562 16.71875 31.476562 17.203125 31.4375 C 18.445312 31.332031 19.597656 31.105469 20.710938 30.746094 C 25.402344 29.234375 29.070312 25.636719 30.652344 20.988281 C 31.015625 19.925781 31.242188 18.902344 31.398438 17.65625 C 31.441406 17.292969 31.453125 16.960938 31.453125 16 C 31.453125 14.714844 31.429688 14.429688 31.261719 13.421875 C 30.617188 9.5625 28.472656 6.019531 25.351562 3.664062 C 22.976562 1.867188 20.214844 0.816406 17.203125 0.5625 C 16.769531 0.527344 15.183594 0.527344 14.75 0.566406 M 14.554688 6.207031 C 14.542969 6.214844 14.542969 6.882812 14.554688 7.683594 L 14.570312 9.144531 L 14.261719 9.167969 C 14.09375 9.179688 13.265625 9.1875 12.429688 9.1875 L 10.90625 9.1875 L 10.914062 10.140625 L 10.921875 11.097656 L 11.703125 11.105469 C 12.367188 11.113281 12.507812 11.121094 12.652344 11.171875 C 12.871094 11.25 13.097656 11.453125 13.1875 11.664062 L 13.261719 11.828125 L 13.273438 15.945312 C 13.289062 19.78125 13.285156 20.074219 13.234375 20.207031 C 13.164062 20.398438 13.058594 20.511719 12.898438 20.582031 C 12.785156 20.628906 12.648438 20.636719 12.023438 20.648438 L 11.28125 20.664062 L 11.265625 20.761719 C 11.203125 21.113281 10.9375 22.757812 10.9375 22.78125 C 10.9375 22.800781 11.589844 22.8125 12.746094 22.8125 L 14.550781 22.8125 L 14.574219 23.566406 C 14.585938 23.984375 14.59375 24.65625 14.59375 25.066406 L 14.59375 25.8125 L 16.414062 25.8125 L 16.367188 22.84375 L 17.84375 22.84375 L 17.84375 25.8125 L 19.65625 25.8125 L 19.65625 22.816406 L 19.820312 22.800781 C 21.132812 22.667969 21.4375 22.621094 22.027344 22.464844 C 23.789062 22 24.714844 21.050781 25.019531 19.398438 C 25.097656 18.980469 25.097656 17.984375 25.023438 17.632812 C 24.855469 16.859375 24.480469 16.265625 23.921875 15.878906 C 23.625 15.671875 23.179688 15.460938 22.820312 15.359375 C 22.671875 15.316406 22.535156 15.277344 22.519531 15.269531 C 22.503906 15.265625 22.59375 15.195312 22.722656 15.117188 C 23.335938 14.734375 23.757812 14.167969 23.941406 13.484375 C 24.03125 13.136719 24.054688 12.4375 23.988281 12.03125 C 23.707031 10.320312 22.476562 9.476562 19.804688 9.171875 L 19.625 9.152344 L 19.625 6.1875 L 17.8125 6.1875 L 17.796875 9.078125 L 16.375 9.09375 L 16.375 8.273438 C 16.375 7.824219 16.367188 7.167969 16.355469 6.820312 L 16.332031 6.1875 L 15.453125 6.1875 C 14.96875 6.1875 14.566406 6.195312 14.554688 6.207031 M 16.40625 13.027344 L 16.40625 14.84375 L 17.070312 14.84375 C 17.828125 14.84375 18.308594 14.808594 18.78125 14.71875 C 19.671875 14.550781 20.234375 14.214844 20.488281 13.699219 C 20.59375 13.488281 20.605469 13.4375 20.617188 13.148438 C 20.636719 12.769531 20.59375 12.542969 20.464844 12.285156 C 20.277344 11.90625 19.792969 11.566406 19.21875 11.40625 C 18.722656 11.269531 18.460938 11.242188 17.414062 11.226562 L 16.40625 11.210938 L 16.40625 13.027344 M 8.15625 13.5 L 8.15625 14.5 L 6.15625 14.5 L 6.15625 16.5 L 8.15625 16.5 L 8.15625 18.5 L 10.15625 18.5 L 10.15625 16.5 L 12.15625 16.5 L 12.15625 14.5 L 10.15625 14.5 L 10.15625 12.5 L 8.15625 12.5 L 8.15625 13.5 M 8.15625 15.5 L 8.15625 16.5 L 10.15625 16.5 L 10.15625 14.5 L 8.15625 14.5 L 8.15625 15.5 M 0.015625 16.015625 C 0.015625 16.53125 0.0195312 16.746094 0.0234375 16.492188 C 0.0273438 16.242188 0.0273438 15.820312 0.0234375 15.554688 C 0.0195312 15.292969 0.015625 15.5 0.015625 16.015625 M 16.425781 16.683594 C 16.414062 16.703125 16.414062 17.601562 16.425781 18.6875 L 16.449219 20.65625 L 17.136719 20.65625 C 19.769531 20.65625 21.078125 20.1875 21.421875 19.125 C 21.492188 18.917969 21.5 18.46875 21.441406 18.21875 C 21.25 17.433594 20.488281 16.941406 19.132812 16.730469 C 18.714844 16.667969 16.457031 16.628906 16.425781 16.683594 "/>
<path style=" stroke:none;fill-rule:evenodd;fill:rgb(17.254902%,17.254902%,23.529412%);fill-opacity:1;" d="M 14.75 0.566406 C 11.777344 0.820312 9.003906 1.882812 6.648438 3.664062 C 4.730469 5.113281 3.109375 7.089844 2.0625 9.265625 C 1.417969 10.605469 0.976562 11.988281 0.738281 13.421875 C 0.570312 14.429688 0.546875 14.714844 0.546875 16 C 0.546875 17.285156 0.570312 17.570312 0.738281 18.578125 C 1.382812 22.4375 3.527344 25.980469 6.648438 28.335938 C 9.023438 30.132812 11.785156 31.183594 14.796875 31.4375 C 15.28125 31.476562 16.71875 31.476562 17.203125 31.4375 C 18.445312 31.332031 19.597656 31.105469 20.710938 30.746094 C 25.402344 29.234375 29.070312 25.636719 30.652344 20.988281 C 31.015625 19.925781 31.242188 18.902344 31.398438 17.65625 C 31.441406 17.292969 31.453125 16.960938 31.453125 16 C 31.453125 14.714844 31.429688 14.429688 31.261719 13.421875 C 30.617188 9.5625 28.472656 6.019531 25.351562 3.664062 C 22.976562 1.867188 20.214844 0.816406 17.203125 0.5625 C 16.769531 0.527344 15.183594 0.527344 14.75 0.566406 M 14.554688 6.207031 C 14.542969 6.214844 14.542969 6.882812 14.554688 7.683594 L 14.570312 9.144531 L 14.261719 9.167969 C 14.09375 9.179688 13.265625 9.1875 12.429688 9.1875 L 10.90625 9.1875 L 10.914062 10.140625 L 10.921875 11.097656 L 11.703125 11.105469 C 12.367188 11.113281 12.507812 11.121094 12.652344 11.171875 C 12.871094 11.25 13.097656 11.453125 13.1875 11.664062 L 13.261719 11.828125 L 13.273438 15.945312 C 13.289062 19.78125 13.285156 20.074219 13.234375 20.207031 C 13.164062 20.398438 13.058594 20.511719 12.898438 20.582031 C 12.785156 20.628906 12.648438 20.636719 12.023438 20.648438 L 11.28125 20.664062 L 11.265625 20.761719 C 11.203125 21.113281 10.9375 22.757812 10.9375 22.78125 C 10.9375 22.800781 11.589844 22.8125 12.746094 22.8125 L 14.550781 22.8125 L 14.574219 23.566406 C 14.585938 23.984375 14.59375 24.65625 14.59375 25.066406 L 14.59375 25.8125 L 16.414062 25.8125 L 16.367188 22.84375 L 17.84375 22.84375 L 17.84375 25.8125 L 19.65625 25.8125 L 19.65625 22.816406 L 19.820312 22.800781 C 21.132812 22.667969 21.4375 22.621094 22.027344 22.464844 C 23.789062 22 24.714844 21.050781 25.019531 19.398438 C 25.097656 18.980469 25.097656 17.984375 25.023438 17.632812 C 24.855469 16.859375 24.480469 16.265625 23.921875 15.878906 C 23.625 15.671875 23.179688 15.460938 22.820312 15.359375 C 22.671875 15.316406 22.535156 15.277344 22.519531 15.269531 C 22.503906 15.265625 22.59375 15.195312 22.722656 15.117188 C 23.335938 14.734375 23.757812 14.167969 23.941406 13.484375 C 24.03125 13.136719 24.054688 12.4375 23.988281 12.03125 C 23.707031 10.320312 22.476562 9.476562 19.804688 9.171875 L 19.625 9.152344 L 19.625 6.1875 L 17.8125 6.1875 L 17.796875 9.078125 L 16.375 9.09375 L 16.375 8.273438 C 16.375 7.824219 16.367188 7.167969 16.355469 6.820312 L 16.332031 6.1875 L 15.453125 6.1875 C 14.96875 6.1875 14.566406 6.195312 14.554688 6.207031 M 16.40625 13.027344 L 16.40625 14.84375 L 17.070312 14.84375 C 17.828125 14.84375 18.308594 14.808594 18.78125 14.71875 C 19.671875 14.550781 20.234375 14.214844 20.488281 13.699219 C 20.59375 13.488281 20.605469 13.4375 20.617188 13.148438 C 20.636719 12.769531 20.59375 12.542969 20.464844 12.285156 C 20.277344 11.90625 19.792969 11.566406 19.21875 11.40625 C 18.722656 11.269531 18.460938 11.242188 17.414062 11.226562 L 16.40625 11.210938 L 16.40625 13.027344 M 8.15625 13.5 L 8.15625 14.5 L 6.15625 14.5 L 6.15625 16.5 L 8.15625 16.5 L 8.15625 18.5 L 10.15625 18.5 L 10.15625 16.5 L 12.15625 16.5 L 12.15625 14.5 L 10.15625 14.5 L 10.15625 12.5 L 8.15625 12.5 L 8.15625 13.5 M 8.15625 15.5 L 8.15625 16.5 L 10.15625 16.5 L 10.15625 14.5 L 8.15625 14.5 L 8.15625 15.5 M 16.425781 16.683594 C 16.414062 16.703125 16.414062 17.601562 16.425781 18.6875 L 16.449219 20.65625 L 17.136719 20.65625 C 19.769531 20.65625 21.078125 20.1875 21.421875 19.125 C 21.492188 18.917969 21.5 18.46875 21.441406 18.21875 C 21.25 17.433594 20.488281 16.941406 19.132812 16.730469 C 18.714844 16.667969 16.457031 16.628906 16.425781 16.683594 "/>
</g>
</svg>
