<?xml version="1.0" encoding="UTF-8" standalone="no"?>
<!-- Created with Inkscape (http://www.inkscape.org/) -->

<svg
   width="32"
   height="32"
   viewBox="0 0 32 32"
   version="1.1"
   id="svg1"
   xml:space="preserve"
   xmlns="http://www.w3.org/2000/svg"
   xmlns:svg="http://www.w3.org/2000/svg"><defs
     id="defs1">
  
  
 
   
   
  </defs><g
     id="layer1"><path
       fill="#f7931a"
       fill-rule="nonzero"
       d="M 31.521275,19.870476 C 29.384117,28.441986 20.701582,33.658438 12.128079,31.520976 3.5581742,29.384062 -1.6588712,20.701967 0.47922496,12.131161 2.615444,3.5587115 11.297979,-1.6581313 19.868823,0.4787831 28.4417,2.6156975 33.658432,11.298731 31.52104,19.870632 l 1.56e-4,-1.56e-4 z"
       id="path1"
       style="clip-rule:evenodd;stroke-width:0.0078211;image-rendering:optimizeQuality;shape-rendering:geometricPrecision;text-rendering:geometricPrecision;fill:#24242b;fill-opacity:1" /><path
       fill="#ffffff"
       fill-rule="nonzero"
       d="m 24.014484,12.208836 c -0.21096,-2.144398 -2.063195,-2.8592411 -4.40026,-3.0587604 l -0.0066,-2.9750699 -1.81024,0.00432 0.0066,2.8967038 c -0.47593,0.00103 -0.9623,0.011554 -1.445634,0.02228 l -0.0062,-2.9159353 -1.809178,0.00405 0.006,2.9742545 c -0.391813,0.00891 -0.776776,0.01714 -1.152016,0.018161 l -2.75e-4,-0.00929 -2.496676,0.00468 0.0048,1.9341603 c 0,0 1.336699,-0.02842 1.314554,-0.0039 0.733118,-0.0015 0.972782,0.423924 1.043158,0.791208 l 0.0076,3.389281 c 0.05053,1.04e-4 0.116536,0.002 0.191397,0.01226 -0.06038,1.89e-4 -0.124732,1.4e-5 -0.191263,7.81e-4 l 0.01004,4.748058 c -0.03155,0.230879 -0.166369,0.599385 -0.678692,0.601349 0.0233,0.02044 -1.315828,0.0027 -1.315828,0.0027 l -0.354965,2.163573 2.355793,-0.0054 c 0.438414,-3.83e-4 0.86976,0.0061 1.293337,0.0077 l 0.0075,3.008994 1.808266,-0.0038 -0.0067,-2.977217 c 0.496574,0.0092 0.976949,0.01204 1.446161,0.0106 l 0.0058,2.963415 1.810314,-0.0043 -0.0062,-3.003661 c 3.043035,-0.181486 5.171339,-0.953177 5.429409,-3.812966 0.208397,-2.302622 -0.876325,-3.327362 -2.604715,-3.738506 1.048417,-0.537056 1.702525,-1.480495 1.545458,-3.049576 l -6.28e-4,-2.45e-4 z m -2.51835,6.439579 c 0.0059,2.248648 -3.843296,2.001558 -5.07014,2.005471 l -0.0084,-3.986782 c 1.227151,-0.0024 5.073461,-0.364099 5.078578,1.981292 z m -0.854458,-5.622887 c 0.004,2.045731 -3.206228,1.814263 -4.228129,1.81661 l -0.0079,-3.615702 c 1.0219,-0.0023 4.231138,-0.33457 4.236149,1.799053 z"
       id="path2"
       style="clip-rule:evenodd;fill:#ffffff;fill-opacity:1;stroke-width:0.00782577;image-rendering:optimizeQuality;shape-rendering:geometricPrecision;text-rendering:geometricPrecision" /><rect
       style="fill:#ffffff;fill-opacity:1"
       id="rect1"
       width="2"
       height="2"
       x="7.8499999"
       y="12.52" /><rect
       style="fill:#ffffff;fill-opacity:1"
       id="rect2"
       width="2"
       height="2"
       x="9.8500004"
       y="14.52" /><rect
       style="fill:#ffffff;fill-opacity:1"
       id="rect3"
       width="2"
       height="2"
       x="7.8499999"
       y="16.52" /><rect
       style="fill:#ffffff;fill-opacity:1"
       id="rect4"
       width="2"
       height="2"
       x="5.8499999"
       y="14.52" /></g></svg>
