<?xml version="1.0" encoding="UTF-8"?>
<svg
  xmlns="http://www.w3.org/2000/svg"
  viewBox="0 0 32 32"
>
  <path
    fill="#7C3AED"
    d="M31.519277,19.870596 C29.3823,28.442009 20.708887,33.658456 12.128474,31.520978 3.5595603,29.384 -1.6568868,20.702088 0.48109151,12.131175 2.6170699,3.5587617 11.298483,-1.6581854 19.868396,0.47879311 28.440309,2.6157714 33.656256,11.298683 31.519277,19.870596 Z"
  />
  <path
    fill="#FFFFFF"
    d="M22.087771,12.28861 C21.900468,10.144105 20.057097,9.4096492 17.723626,9.1846788 V8.02588 C17.723626,7.7238888 17.723626,7.4218976 17.723626,7.1199064 H16.513817 V9.121064 C16.176088,9.121064 15.838359,9.121064 15.50063,9.121064 V7.1199064 H14.290821 V9.1846788 C11.720636,9.4096492 9.8772646,10.144105 9.6899617,12.28861 9.5026587,14.433116 10.716195,15.402827 12.812847,15.959358 L12.812847,18.941799 C10.716195,19.498331 9.5026587,20.468042 9.6899617,22.612547 9.8772646,24.757052 11.720636,25.491508 14.290821,25.716479 V27.781251 H15.50063 V25.779084 C15.838359,25.779084 16.176088,25.779084 16.513817,25.779084 V27.781251 H17.723626 V25.716479 C20.293811,25.491508 22.137183,24.757052 22.324486,22.612547 22.511789,20.468042 21.298252,19.498331 19.2016,18.941799 V15.959358 C21.298252,15.402827 22.511789,14.433116 22.324486,12.28861 Z"
  />
</svg>
