<?xml version="1.0" encoding="UTF-8" standalone="no"?>

<svg
   width="32"
   height="32"
   viewBox="0 0 32 32"
   version="1.1"
   id="svg1"
   xml:space="preserve"
   xmlns="http://www.w3.org/2000/svg"
   xmlns:svg="http://www.w3.org/2000/svg"><defs
     id="defs1" /><g
     id="layer1"><path
       fill="#f7931a"
       d="M 31.519277,19.870596 C 29.3823,28.442009 20.700887,33.658456 12.128474,31.520978 3.5595603,29.384 -1.6568868,20.702088 0.48109151,12.131175 2.6170699,3.5587617 11.298483,-1.6581854 19.868396,0.47879311 28.440309,2.6157714 33.656256,11.298683 31.519277,19.870596 Z"
       id="path1"
       style="fill:#7c3aed;fill-opacity:1;stroke-width:0.499995" /><path
       fill="#ffffff"
       d="M 22.087771,12.28861 C 21.900468,10.144105 20.057097,9.4096492 17.723626,9.1846788 l 0.02588,-2.9721321 -1.809109,-0.015598 -0.02514,2.8937974 c -0.47559,-0.00409 -0.961818,0.00106 -1.444895,0.00649 l 0.02569,-2.912953 -1.808137,-0.015832 -0.0266,2.9712763 c -0.391751,0.00458 -0.776462,0.0085 -1.151529,0.00547 l -1.56e-4,-0.00922 -2.4952005,-0.022626 -0.016386,1.9321936 c 0,0 1.3361825,-0.01381 1.3137615,0.0106 0.732784,0.0066 0.967567,0.434114 1.033736,0.801824 l -0.02939,3.385879 c 0.05056,7.16e-4 0.116511,0.0034 0.191112,0.01428 -0.06027,-4.43e-4 -0.124776,-0.0014 -0.19111,-0.0014 l -0.04185,4.743279 c -0.03417,0.23034 -0.172942,0.596859 -0.684918,0.59328 0.02297,0.02071 -1.3150835,-0.01182 -1.3150835,-0.01182 l -0.3783083,2.157402 2.3543028,0.02046 c 0.438115,0.0043 0.869132,0.01553 1.292311,0.02192 l -0.02547,3.00597 1.807164,0.01606 0.0259,-2.974193 c 0.496108,0.01459 0.976268,0.02272 1.445071,0.02638 l -0.02662,2.960483 1.80911,0.0156 0.02675,-3.000622 c 3.043006,-0.14797 5.178448,-0.895635 5.467711,-3.749487 0.233491,-2.297979 -0.83941,-3.333617 -2.5623,-3.763279 1.053551,-0.524948 1.717538,-1.460289 1.577846,-3.029522 z m -2.587135,6.405379 c -0.0186,2.246389 -3.862761,1.957315 -5.088851,1.94778 l 0.03521,-3.982724 c 1.226442,0.01099 5.074232,-0.308078 5.053637,2.034944 z m -0.792364,-5.626427 c -0.0184,2.043744 -3.224154,1.77726 -4.245423,1.768429 l 0.03163,-3.612151 c 1.021269,0.0088 4.232173,-0.287944 4.213798,1.843722 z"
       id="path2"
       style="stroke-width:0.499995" /></g></svg>
